<svg width="375" height="20" viewBox="0 0 375 20" fill="none" xmlns="http://www.w3.org/2000/svg">
<g clip-path="url(#clip0_12_10508)">
<path d="M173.301 14V7.0332H173.201L171.098 8.52148V7.09766L173.307 5.54492H174.812V14H173.301ZM180.221 14.1699C178.369 14.1699 177.156 13.1621 177.045 11.7148L177.039 11.6445H178.48L178.486 11.709C178.568 12.4238 179.23 12.9336 180.221 12.9336C181.199 12.9336 181.85 12.3887 181.85 11.6035V11.5918C181.85 10.7012 181.193 10.209 180.109 10.209H179.113V9.08398H180.08C181.012 9.08398 181.633 8.55664 181.633 7.81836V7.80664C181.633 7.0332 181.111 6.57617 180.209 6.57617C179.318 6.57617 178.703 7.05078 178.627 7.80664L178.621 7.86523H177.215L177.221 7.80078C177.35 6.33594 178.504 5.375 180.209 5.375C181.949 5.375 183.08 6.2832 183.08 7.60742V7.61914C183.08 8.66797 182.324 9.36523 181.311 9.57617V9.60547C182.553 9.72266 183.379 10.4609 183.379 11.6328V11.6445C183.379 13.1328 182.096 14.1699 180.221 14.1699ZM186.104 8.52148C185.57 8.52148 185.172 8.11133 185.172 7.5957C185.172 7.07422 185.57 6.66992 186.104 6.66992C186.643 6.66992 187.035 7.07422 187.035 7.5957C187.035 8.11133 186.643 8.52148 186.104 8.52148ZM186.104 12.8691C185.57 12.8691 185.172 12.4648 185.172 11.9434C185.172 11.4219 185.57 11.0176 186.104 11.0176C186.643 11.0176 187.035 11.4219 187.035 11.9434C187.035 12.4648 186.643 12.8691 186.104 12.8691ZM189.01 14V12.9805L191.787 10.1445C192.936 8.98438 193.258 8.55664 193.258 7.90625V7.88867C193.258 7.10938 192.725 6.54688 191.846 6.54688C190.949 6.54688 190.346 7.13867 190.346 8.01172L190.34 8.03516L188.934 8.0293L188.928 8.01172C188.928 6.43555 190.158 5.33398 191.922 5.33398C193.568 5.33398 194.752 6.33594 194.752 7.75977V7.77734C194.752 8.73828 194.289 9.5 192.748 10.9824L191.055 12.623V12.7461H194.881V14H189.01ZM199.656 14.2109C197.646 14.2109 196.439 12.5059 196.439 9.77539V9.76367C196.439 7.0332 197.646 5.33398 199.656 5.33398C201.666 5.33398 202.885 7.0332 202.885 9.76367V9.77539C202.885 12.5059 201.666 14.2109 199.656 14.2109ZM199.656 12.9863C200.734 12.9863 201.361 11.7793 201.361 9.77539V9.76367C201.361 7.75977 200.734 6.56445 199.656 6.56445C198.578 6.56445 197.963 7.75977 197.963 9.76367V9.77539C197.963 11.7793 198.578 12.9863 199.656 12.9863Z" fill="black"/>
<path opacity="0.35" fill-rule="evenodd" clip-rule="evenodd" d="M345.5 4.5H364.5C365.881 4.5 367 5.61929 367 7V13.5C367 14.8807 365.881 16 364.5 16H345.5C344.119 16 343 14.8807 343 13.5V7C343 5.61929 344.119 4.5 345.5 4.5ZM345.5 5.5C344.672 5.5 344 6.17157 344 7V13.5C344 14.3284 344.672 15 345.5 15H364.5C365.328 15 366 14.3284 366 13.5V7C366 6.17157 365.328 5.5 364.5 5.5H345.5Z" fill="black"/>
<path opacity="0.4" fill-rule="evenodd" clip-rule="evenodd" d="M368 7.7998C368.89 8.25498 369.5 9.18128 369.5 10.2499C369.5 11.3186 368.89 12.2449 368 12.7001V7.7998Z" fill="black"/>
<path fill-rule="evenodd" clip-rule="evenodd" d="M345.708 6.5H358.452C358.844 6.5 359.161 6.94772 359.161 7.5V13C359.161 13.5523 358.844 14 358.452 14H345.708C345.317 14 345 13.5523 345 13V7.5C345 6.94772 345.317 6.5 345.708 6.5Z" fill="black"/>
<g clip-path="url(#clip1_12_10508)">
<path fill-rule="evenodd" clip-rule="evenodd" d="M20.5 5H21.5C22.0523 5 22.5 5.44772 22.5 6V14C22.5 14.5523 22.0523 15 21.5 15H20.5C19.9477 15 19.5 14.5523 19.5 14V6C19.5 5.44772 19.9477 5 20.5 5Z" fill="black"/>
<path d="M17 7H16C15.4477 7 15 7.44772 15 8V14C15 14.5523 15.4477 15 16 15H17C17.5523 15 18 14.5523 18 14V8C18 7.44772 17.5523 7 17 7Z" fill="black"/>
<path d="M11.5 9H12.5C13.0523 9 13.5 9.44772 13.5 10V14C13.5 14.5523 13.0523 15 12.5 15H11.5C10.9477 15 10.5 14.5523 10.5 14V10C10.5 9.44772 10.9477 9 11.5 9Z" fill="black"/>
<path d="M7 10.5H8C8.55228 10.5 9 10.9477 9 11.5V14C9 14.5523 8.55228 15 8 15H7C6.44772 15 6 14.5523 6 14V11.5C6 10.9477 6.44772 10.5 7 10.5Z" fill="black"/>
<path d="M32.8496 14.1992C30.998 14.1992 29.8027 13.2266 29.6797 11.8496L29.6738 11.7852H30.7285L30.7344 11.8496C30.8105 12.6934 31.6895 13.2266 32.9082 13.2266C34.0566 13.2266 34.8945 12.6348 34.8945 11.7734V11.7676C34.8945 11.0645 34.4082 10.584 33.248 10.3262L32.3105 10.1211C30.6172 9.74609 29.8848 8.9668 29.8848 7.74219V7.73633C29.8906 6.33594 31.1152 5.3457 32.8613 5.3457C34.5488 5.3457 35.7266 6.3418 35.8145 7.60156L35.8203 7.68359H34.7656L34.7539 7.60742C34.6367 6.86328 33.9336 6.3125 32.832 6.31836C31.7773 6.32422 30.9629 6.82227 30.9629 7.70703V7.71289C30.9629 8.38672 31.4258 8.84375 32.5742 9.0957L33.5117 9.30664C35.2754 9.69922 35.9727 10.4082 35.9727 11.627V11.6328C35.9727 13.2148 34.7363 14.1992 32.8496 14.1992ZM37.6805 14V5.54492H42.8133V6.49414H38.7352V9.40039H42.4793V10.3379H38.7352V14H37.6805ZM44.4977 14V5.54492H47.7262C49.3551 5.54492 50.4215 6.54102 50.4215 8.05859V8.07031C50.4215 9.24219 49.7828 10.1562 48.7223 10.4902L50.6793 14H49.443L47.6324 10.6543H45.5523V14H44.4977ZM45.5523 9.7168H47.6324C48.7164 9.7168 49.3316 9.13672 49.3316 8.10547V8.09375C49.3316 7.08594 48.6754 6.48242 47.5855 6.48242H45.5523V9.7168Z" fill="black"/>
<path fill-rule="evenodd" clip-rule="evenodd" d="M69.9828 7.52294C68.0717 5.89057 65.6574 5 63.1327 5C60.6006 5 58.1795 5.89589 56.2661 7.53708L56.1036 7.67646C55.9722 7.78918 55.9647 7.98954 56.0873 8.11176L57.2142 9.23557C57.3236 9.34466 57.4985 9.3521 57.6168 9.2527L57.7564 9.13541C59.2633 7.86943 61.1552 7.18035 63.1327 7.18035C65.1035 7.18035 66.9894 7.86472 68.494 9.12283L68.6336 9.23952C68.7519 9.33847 68.9264 9.33084 69.0356 9.22195L70.1627 8.09797C70.2855 7.97558 70.2777 7.77488 70.1459 7.66228L69.9828 7.52294ZM63.1327 8.46979C64.7236 8.46979 66.251 8.99754 67.4953 9.97486L67.6711 10.113C67.8113 10.2231 67.8236 10.4306 67.6974 10.5564L66.5667 11.6841C66.4621 11.7884 66.2966 11.8003 66.178 11.7122L66.0401 11.6098C65.1997 10.9852 64.1864 10.6501 63.1327 10.6501C62.0726 10.6501 61.0533 10.9893 60.2101 11.6211L60.0721 11.7245C59.9535 11.8133 59.7874 11.8016 59.6825 11.697L58.5522 10.5698C58.4262 10.4442 58.4382 10.2373 58.5777 10.1269L58.7526 9.98871C59.9998 9.00267 61.5342 8.46979 63.1327 8.46979ZM63.1327 11.9396C63.7722 11.9396 64.3936 12.1076 64.9411 12.4281L65.163 12.5579C65.3311 12.6563 65.3607 12.8867 65.2228 13.0242L63.3287 14.913C63.2124 15.029 63.0238 15.029 62.9074 14.913L61.0255 13.0363C60.8882 12.8994 60.9169 12.6702 61.0836 12.5711L61.303 12.4406C61.8555 12.1121 62.4848 11.9396 63.1327 11.9396Z" fill="black"/>
</g>
</g>
<defs>
<clipPath id="clip0_12_10508">
<rect width="375" height="20" fill="white"/>
</clipPath>
<clipPath id="clip1_12_10508">
<rect width="67" height="16" fill="white" transform="translate(4 3)"/>
</clipPath>
</defs>
</svg>
